<?xml version="1.0" standalone="no"?><!DOCTYPE svg PUBLIC "-//W3C//DTD SVG 1.1//EN" "http://www.w3.org/Graphics/SVG/1.1/DTD/svg11.dtd"><svg class="icon" width="16px" height="16.00px" viewBox="0 0 1024 1024" version="1.1" xmlns="http://www.w3.org/2000/svg"><path fill="#909399" d="M504.367399 1024c-48.61586 0-91.233777-5.117936-130.263199-15.644794-9.850239-0.117804-17.12087-2.713523-25.50913-5.709977-2.170818-0.775292-4.415138-1.576763-6.815524-2.374207l-3.520028-1.169987L338.259518 617.815314l9.704243 19.335991c4.146303 7.114565 71.06913 75.373513 170.567322 173.970553 81.192232 80.457215 157.590741 154.841978 171.132178 166.68784l4.365802-1.739877 0 11.655563-3.750602 0.918268c-43.968134 17.465221-86.540742 27.736333-130.114182 31.392289C543.921401 1024 523.816159 1024 504.367399 1024zM348.532644 991.701525c1.203213 0.420873 2.366152 0.836712 3.510966 1.245502 8.003634 2.857506 14.32579 5.115922 22.757346 5.115922l0.68266 0 0.660509 0.179223c38.316555 10.40402 80.258861 15.461543 128.223274 15.461543 18.992647 0 38.632714 0 53.726748-3.761678l0.402749-0.09968 0.412818-0.035241c40.211491-3.333757 79.575194-12.446965 120.072636-27.81789-2.390317-2.201025-5.428053-5.046448-9.068906-8.494988-9.311562-8.821215-22.375741-21.398067-38.829054-37.382177-32.508911-31.582588-75.085547-73.403062-116.813388-114.735202C461.080918 768.690212 377.116764 684.993886 348.532644 653.550246L348.532644 991.701525zM307.072631 985.831455l-1.829488-1.672416c-37.923875-15.225935-77.385245-38.319576-114.181422-66.828181-15.945849-11.909295-31.967214-27.874275-43.665065-39.530844-32.440444-32.309551-59.891832-67.863246-79.385902-102.818859l-0.103708-0.19634c-1.871777-3.723417-4.804798-8.593662-7.642167-13.303814-2.953159-4.903472-6.007005-9.973078-8.062033-14.070045l-1.672416-3.333757 269.309352-268.26019-6.851771 20.457647c-3.331743 17.565908-0.184258 437.495419 0.17721 479.962305l0.033227 0.013089 0 6.848751L307.072631 985.831455zM77.030322 770.052511c19.030908 34.099771 45.865083 68.830851 77.607764 100.444652 11.480367 11.440092 27.201683 27.10603 42.634027 38.63372 34.114874 26.430419 70.442855 48.059059 105.585746 62.912451l-0.101694-12.60303c-0.101694-12.967519-0.240643-31.504052-0.394694-53.782126-0.277897-40.334329-0.662522-101.525027-0.915248-163.981365-0.621241-153.442424-0.069474-211.261105 0.622248-233.643893L63.118357 746.053691c1.729808 3.115265 3.860351 6.653417 5.940551 10.106992C71.971792 760.995687 74.983349 765.994812 77.030322 770.052511zM723.216299 978.173178l-262.713326-261.690343 506.894147 0-2.839382 7.070263c-15.288361 38.06383-38.616604 77.714492-67.464524 114.663714-11.969707 15.889464-27.990065 31.845382-39.68691 43.496917-32.248131 32.124286-67.71725 59.338052-102.607416 78.736469-6.608108 6.331218-15.324608 10.214727-22.363658 13.349123-2.142626 0.954516-4.167448 1.855667-5.924441 2.731647L723.216299 978.173178zM485.412006 726.779119l239.880465 238.946087c0.962571-0.43799 1.956354-0.881014 2.974303-1.334107 6.795386-3.026661 14.498972-6.457077 19.823317-11.760278l0.509478-0.507464 0.628289-0.348378c34.264898-18.963448 69.169161-45.716066 100.940034-77.364101 11.47936-11.433044 27.19967-27.091934 38.783745-42.466886 26.524058-33.975926 48.236269-70.160931 63.15108-105.164874L485.412006 726.779119zM39.228279 715.158797l-2.909863-7.248479c-17.65854-43.981223-28.037388-86.557859-31.72355-130.139354-3.981176-16.189512-3.981176-36.220246-3.981176-55.595504 0-48.697417 5.196472-91.357623 15.885437-130.418257l0.084577-0.27689c1.863722-5.563981 2.787025-10.163377 3.764698-15.032615 0.995797-4.957843 2.024822-10.084841 4.085891-16.248918l1.175021-3.511973 378.027481 0-14.218055 9.439435c-10.768508 7.654249-252.47242 250.547279-344.692933 343.490727L39.228279 715.158797zM26.367489 394.618735c-10.417109 38.122229-15.481681 79.85007-15.481681 127.556724 0 18.914111 0 38.470607 3.77376 53.495167l0.102701 0.407784 0.035241 0.418859c3.366984 40.27593 12.601017 79.703067 28.186405 120.276025 47.756997-48.116451 277.703653-279.643897 330.361102-329.791211L33.080312 366.982083c-1.169987 4.059712-1.89997 7.695531-2.662172 11.49547C29.428383 383.409217 28.4054 388.505002 26.367489 394.618735zM983.122463 687.669148 605.093975 687.669148l14.219062-9.439435c10.767501-7.654249 252.470406-250.548286 344.691926-343.491734l5.02631-5.065579 3.20387 6.382569c17.370575 34.608242 27.21578 74.876117 31.905794 130.528007 3.974128 16.188506 3.974128 36.216218 3.974128 55.592484 0 48.434623-5.13908 90.891441-15.706213 129.76379-0.120825 9.813992-2.721578 17.050389-5.72206 25.397367-0.780327 2.171825-1.587839 4.417152-2.390317 6.818545L983.122463 687.669148zM635.385752 677.372864l340.378482 0c0.425907-1.208248 0.84678-2.377227 1.258591-3.52607 2.85952-7.954297 5.117936-14.236179 5.117936-22.61437l0-0.693736 0.183251-0.668564c10.442281-38.150421 15.518935-79.919545 15.518935-127.694666 0-18.914111 0-38.471614-3.767719-53.495167l-0.101694-0.406777-0.035241-0.417852c-4.270149-51.02128-12.892003-88.655175-27.760498-120.70898C919.38941 394.290495 688.202287 627.074518 635.385752 677.372864zM691.17357 566.266432l4.512805-17.971678c2.745743-12.958457 1.412643-298.675812-0.155058-487.551108l-0.063433-7.654249 7.096442 2.8273c38.20882 15.221907 78.01152 38.457518 115.102711 67.195689 15.958938 11.921377 31.972248 27.879309 43.665065 39.530844l-0.001007-0.001007c34.259864 34.119908 61.004427 70.095484 79.49263 106.927908 1.871777 3.727444 4.808826 8.604737 7.650222 13.321938 2.949131 4.897431 5.99895 9.960995 8.051964 14.053935l1.673423 3.333757-2.641028 2.629953L691.17357 566.266432zM705.866869 68.398903c0.546732 67.508827 3.037736 394.191821 0.705818 468.012735l239.038719-238.108369c-1.727794-3.109224-3.855317-6.642342-5.931489-10.089875-2.940069-4.883334-5.981833-9.932803-8.03082-14.014667-17.990808-35.840654-44.084931-70.916085-77.55742-104.252646l-0.001007-0.001007c-11.474326-11.434051-27.188594-27.093948-42.63302-38.632714C777.344789 104.884963 741.011774 83.254308 705.866869 68.398903zM670.470245 417.854346l-9.401174-14.044873c-7.701572-10.739308-251.532001-251.487698-344.831882-343.343723l-5.623386-5.536795 7.325002-2.918925c44.139302-17.59108 86.874017-27.928646 130.62668-31.599705 16.24187-3.965066 36.347112-3.965066 55.795872-3.965066 43.425429 0 86.062477 6.397672 130.325625 19.559517 9.808958 0.127873 17.054416 2.713523 25.41247 5.693867 2.180887 0.777306 4.435276 1.582804 6.848751 2.383269l3.522042 1.167973L670.470245 417.854346zM329.105027 58.702715c48.462816 47.727798 280.925647 276.80955 331.093098 329.089421L660.198126 52.652414c-1.214289-0.423894-2.388303-0.842753-3.543186-1.254564-7.993565-2.851465-14.305653-5.10384-22.732174-5.10384l-0.749114 0-0.717901-0.214464C588.907484 33.066719 547.007467 26.739529 504.361357 26.739529c-18.992647 0-38.632714 0-53.724734 3.761678l-0.402749 0.100687-0.412818 0.034234C409.388053 33.990022 369.817941 43.18378 329.105027 58.702715zM552.592592 336.136526l-18.058269-4.500723c-12.940333-2.736681-299.822641-1.409622-489.486318 0.152038l-7.672373 0.062426 2.865561-7.132689c15.296416-38.080947 38.625665-77.731609 67.464524-114.664721 11.7049-15.541086 23.81859-31.621856 39.942655-43.755684 32.19074-32.01655 67.564205-59.136677 102.352677-78.475689 8.682267-8.32382 20.981221-12.409711 32.881454-16.363701l2.996454-0.995797 2.243313 2.229217L552.592592 336.136526zM283.123147 82.227298c-10.398985 3.486802-20.026706 7.05516-26.410281 13.41457l-0.509478 0.507464-0.628289 0.348378c-34.254829 18.957407-69.160099 45.707004-100.942048 77.358059l-0.258766 0.25776-0.291993 0.217485c-15.096048 11.282013-26.313621 26.173666-38.189689 41.940292l-0.097667 0.127873c-26.451563 33.875238-48.150685 70.034065-63.071537 105.030959 67.735373-0.543711 395.688035-3.025654 469.823093-0.705818L283.123147 82.227298z" /></svg>