<?xml version="1.0" standalone="no"?>
<!DOCTYPE svg PUBLIC "-//W3C//DTD SVG 1.1//EN" "http://www.w3.org/Graphics/SVG/1.1/DTD/svg11.dtd">
<svg class="icon" width="100%" height="100%" viewBox="0 0 1069 1024" version="1.1" xmlns="http://www.w3.org/2000/svg"><path d="M856.53674667 477.96906667c-24.63744-21.37088-41.84576-35.03616-68.15744-61.16864-72.77056-72.27904-141.79328-135.9104-218.89536-215.83872-18.12992-16.34304-7.34208-6.71744-24.14592-21.12-2.56-2.5856-5.01248-3.0976-7.64416-0.12288-34.75456 31.92832-58.9312 57.9584-86.60992 85.03296-104.95488 103.56224-104.95488 103.56224-161.28 158.72-21.31968 20.87424-29.42976 30.64832-52.44928 53.79072-0.82944 0.77824-1.9712 1.21856-3.08224 1.88416 1.8432 1.6384 1.78176 2.05312 2.74432 2.02752 12.45696-0.37376 20.1984 0.6912 32.64 0 17.8944-0.9984 23.8848 9.71264 25.95328 25.66144 0.26624 2.06848 0.128 4.1984 0.128 6.2976 0 74.3424 0.0256 153.78944-0.01536 228.13184-0.02048 36.93056 8.25344 47.6416 38.144 66.81088 9.5232 6.10816 20.45952 13.58848 31.7952 13.58848 80.7936 0.01024 161.5872-0.01024 242.37568 0.03584 6.07232 0.00512 11.14112-1.98656 15.34976-6.29248 1.88928-1.93536 3.7376-3.9168 5.74976-5.72416 6.31808-5.69344 3.79904-7.61344 3.77856-16.11264-0.13824-45.80352-0.07168-91.61216-0.07168-137.41056 0-13.66528-0.11776-27.33056 0.0512-40.99584 0.10752-8.1408-2.42176-9.86624-8.45824-15.39584-1.99168-1.8176-3.8912-3.75808-5.73952-5.72928-4.37248-4.64896-9.7024-6.71744-16.08192-6.7072-43.6992 0.06144-82.2784 0.05632-125.98272-0.00512-5.9392 1.99168-11.70944 7.18848-16.08704 11.8272-1.95584 2.07872-3.97312 4.096-6.05696 6.05696-3.53792 5.36576-3.03104 6.84032-3.01568 14.62272 0.07168 34.688 0.02048 64.26112 0.04608 98.94912 0 6.6816-1.0496 13.06624-3.77344 19.27168-2.33472 5.30432-11.74528 8.50432-16.80896 8.576-5.30944 0.0768-9.728-3.27168-12.01152-8.7296-2.17088-5.20192-3.64544-10.48064-3.64544-16.128-0.00512-31.98464-0.11264-63.96928 0.04608-95.95904 0.0768-15.22688 3.85024-29.63968 10.53184-43.36128 12.63104-25.94304 34.29888-38.14912 62.12096-38.8096 36.16768-0.86016 72.40192-1.07008 108.55936 0.03584 34.75968 1.05984 57.23136 18.92864 68.16256 54.36416 2.97984 9.68192 4.39808 19.6096 4.39808 29.73696 0.02048 51.20512 0.04096 102.41536-0.01024 153.6256-0.01024 14.75072-3.15904 28.83072-9.20064 42.33216-12.48256 27.88864-34.83136 41.40032-64.45056 41.64608-72.5248 0.60416-145.08032 1.23392-217.58976-0.1536-51.95776-0.98816-88.46336-27.60192-109.48096-75.14624-9.41568-21.30432-13.86496-43.66848-13.8496-66.95424 0.03072-44.90752-0.01536-89.8048 0.02048-134.7072 0.01536-18.62144 0.1792-37.23264 0.2304-55.85408 0.02048-7.74144-3.20512-10.9824-10.90048-10.98752-20.12672-0.02048-40.24832 0.01024-60.36992-0.01536-12.06784-0.01536-20.66432-11.94496-16.8192-23.37792a35.46112 35.46112 0 0 1 8.68352-14.01856c117.60128-117.07392 235.14624-234.19904 352.82944-351.18592 11.40224-11.33056 16.55808-11.33568 27.99104 0.0256 117.5808 116.88448 235.01824 233.90208 352.512 350.86848 2.58048 2.56512 4.63872 5.47328 6.53824 8.55552 5.04832 8.17664 3.91168 16.0512-1.35168 23.48544-2.95936 4.17792-7.58784 5.64224-12.60032 5.65248-19.97824 0.03072-39.95136 0.01024-59.91936 0.01536-8.7296 0.00512-11.68896 2.92352-11.68896 11.56608 0.03072 63.96928 0.29184 127.93856 0.03072 191.90784-0.15872 38.912-12.41088 73.68192-37.87776 103.43936-5.41184 6.31808-12.16 11.0848-18.95936 15.81056-5.26848 3.66592-10.30144 2.66752-14.3616-1.00864-4.75136-4.3008-12.69248-10.21952-11.58144-16.83968 1.02912-6.13888 4.06016-11.19232 9.16992-15.4112 18.92864-15.60576 28.04224-34.29376 31.44192-59.52512a123.4432 123.4432 0 0 0 1.12128-16.6144c-0.01024-74.33728 5.13024-148.66944 5.07904-223.0016-0.01024-5.94432-0.59904-12.47232 1.8176-17.90976 3.21024-7.24992 8.27904-13.07136 16.32256-12.8 13.7984 0.4608 23.79776-0.45568 37.60128 0 1.43872 0.0512 5.60128 0 7.52128-1.28l-0.4608-1.95072z"  /></svg>