<?xml version="1.0" standalone="no"?><!DOCTYPE svg PUBLIC "-//W3C//DTD SVG 1.1//EN" "http://www.w3.org/Graphics/SVG/1.1/DTD/svg11.dtd"><svg class="icon" width="16px" height="16.00px" viewBox="0 0 1024 1024" version="1.1" xmlns="http://www.w3.org/2000/svg"><path fill="#909399" d="M955.46026667 974.21084445H110.04586667c-17.47626667 0-34.95253333-8.73813333-45.8752-21.84533334-10.92266667-15.29173333-15.29173333-32.768-10.92266667-50.24426666 43.69066667-222.8224 225.00693333-388.84693333 443.46026667-406.3232 8.73813333-2.18453333 15.29173333-2.18453333 26.2144-2.18453334v21.84533334c-8.73813333 0-15.29173333 0-24.02986667 2.18453333-209.7152 15.29173333-384.47786667 174.76266667-425.984 388.84693333-2.18453333 10.92266667 0 24.02986667 8.73813333 32.768 6.5536 8.73813333 17.47626667 13.1072 28.39893334 13.1072h845.4144c10.92266667 0 21.84533333-4.36906667 28.39893333-13.1072 6.5536-8.73813333 10.92266667-19.6608 8.73813333-32.768-26.2144-139.81013333-111.4112-259.95946667-231.56053333-327.68-13.1072-8.73813333-28.39893333-15.29173333-41.50613333-21.84533333l8.73813333-19.6608c15.29173333 6.5536 30.58346667 15.29173333 43.69066667 21.84533333 126.70293333 72.0896 214.08426667 196.608 242.4832 342.97173334 4.36906667 17.47626667 0 34.95253333-13.1072 50.24426666-10.92266667 13.1072-28.39893333 21.84533333-45.8752 21.84533334z m-425.984-458.752h-4.36906667v-21.84533334h6.5536l-2.18453333 21.84533334z"  /><path fill="#909399" d="M538.2144 515.45884445c-137.6256 0-251.22133333-113.59573333-251.22133333-251.22133334S400.5888 13.01617778 538.2144 13.01617778s251.22133333 113.59573333 251.22133333 251.22133333-113.59573333 251.22133333-251.22133333 251.22133334z m0-480.59733334c-126.70293333 0-229.376 102.67306667-229.376 229.376s102.67306667 229.376 229.376 229.376 229.376-102.67306667 229.376-229.376S664.91733333 34.86151111 538.2144 34.86151111z"  /></svg>