<?xml version="1.0" standalone="no"?><!DOCTYPE svg PUBLIC "-//W3C//DTD SVG 1.1//EN" "http://www.w3.org/Graphics/SVG/1.1/DTD/svg11.dtd"><svg class="icon" width="16px" height="16.00px" viewBox="0 0 1024 1024" version="1.1" xmlns="http://www.w3.org/2000/svg"><path fill="#909399" d="M734.608696 943.86087h-373.982609c-97.947826 0-178.086957-80.13913-178.086957-178.086957v-538.713043c0-35.617391 8.904348-66.782609 26.713044-93.495653-80.13913 17.808696-142.469565 89.043478-142.469565 173.634783v538.713043c0 97.947826 80.13913 178.086957 178.086956 178.086957h373.982609c62.330435 0 120.208696-35.617391 151.373913-84.591304-8.904348 4.452174-22.26087 4.452174-35.617391 4.452174M747.965217 463.026087h-311.652174c-13.356522 0-22.26087-8.904348-22.260869-22.26087s8.904348-22.26087 22.260869-22.260869h311.652174c13.356522 0 22.26087 8.904348 22.26087 22.260869 0 8.904348-8.904348 22.26087-22.26087 22.26087m0 133.565217h-311.652174c-13.356522 0-22.26087-8.904348-22.260869-22.260869s8.904348-22.26087 22.260869-22.26087h311.652174c13.356522 0 22.26087 8.904348 22.26087 22.26087s-8.904348 22.26087-22.26087 22.260869m0 133.565218h-311.652174c-13.356522 0-22.26087-8.904348-22.260869-22.26087s8.904348-22.26087 22.260869-22.260869h311.652174c13.356522 0 22.26087 8.904348 22.26087 22.260869s-8.904348 22.26087-22.26087 22.26087m31.165218-725.704348h-373.982609c-97.947826 0-178.086957 80.13913-178.086956 178.086956v538.713044c0 97.947826 80.13913 178.086957 178.086956 178.086956h373.982609c97.947826 0 178.086957-80.13913 178.086956-178.086956v-538.713044c0-97.947826-80.13913-178.086957-178.086956-178.086956" /></svg>